<?xml version="1.0" encoding="utf-8"?>
<!-- Generator: Adobe Illustrator 16.0.0, SVG Export Plug-In . SVG Version: 6.00 Build 0)  -->
<!DOCTYPE svg PUBLIC "-//W3C//DTD SVG 1.1//EN" "http://www.w3.org/Graphics/SVG/1.1/DTD/svg11.dtd">
<svg version="1.1" xmlns="http://www.w3.org/2000/svg" xmlns:xlink="http://www.w3.org/1999/xlink" x="0px" y="0px" width="800px"
	 height="800px" viewBox="0 0 800 800" enable-background="new 0 0 800 800" xml:space="preserve">
<g id="Layer_1">
</g>
<g id="Icons">
	<path fill="#030404" d="M692.552,156.207c26.816,0,48.759,21.942,48.759,48.759v390.068c0,26.817-21.942,48.759-48.759,48.759
		H107.448c-26.819,0-48.759-21.941-48.759-48.759V204.966c0-26.817,21.939-48.759,48.759-48.759H692.552 M692.552,107.448H107.448
		c-53.77,0-97.517,43.747-97.517,97.518v390.068c0,53.771,43.747,97.518,97.517,97.518h585.104
		c53.771,0,97.518-43.747,97.518-97.518V204.966C790.069,151.195,746.322,107.448,692.552,107.448L692.552,107.448z
		 M668.173,229.345v73.138H131.828v-73.138H668.173 M668.173,204.966H131.828c-13.463,0-24.379,10.916-24.379,24.379v73.138
		c0,13.463,10.916,24.379,24.379,24.379h536.345c13.463,0,24.379-10.916,24.379-24.379v-73.138
		C692.552,215.881,681.636,204.966,668.173,204.966L668.173,204.966z M229.345,400v170.655h-97.517V400H229.345 M229.345,375.621
		h-97.517c-13.463,0-24.379,10.916-24.379,24.379v170.655c0,13.464,10.916,24.379,24.379,24.379h97.517
		c13.463,0,24.379-10.915,24.379-24.379V400C253.724,386.537,242.808,375.621,229.345,375.621L229.345,375.621z M668.173,400
		v170.655H326.862V400H668.173 M668.173,375.621H326.862c-13.464,0-24.379,10.916-24.379,24.379v170.655
		c0,13.464,10.916,24.379,24.379,24.379h341.311c13.463,0,24.379-10.915,24.379-24.379V400
		C692.552,386.537,681.636,375.621,668.173,375.621L668.173,375.621z"/>
</g>
</svg>
