<?xml version="1.0" encoding="utf-8"?>
<!-- Generator: Adobe Illustrator 16.0.0, SVG Export Plug-In . SVG Version: 6.00 Build 0)  -->
<!DOCTYPE svg PUBLIC "-//W3C//DTD SVG 1.1//EN" "http://www.w3.org/Graphics/SVG/1.1/DTD/svg11.dtd">
<svg version="1.1" xmlns="http://www.w3.org/2000/svg" xmlns:xlink="http://www.w3.org/1999/xlink" x="0px" y="0px" width="800px"
	 height="800px" viewBox="0 0 800 800" enable-background="new 0 0 800 800" xml:space="preserve">
<g id="Layer_1">
</g>
<g id="Icons">
	<g>
		<path fill="#030404" d="M671.334,5.333H350.667c-81.612,0-148,66.394-148,148V548h-74C60.658,548,5.333,603.328,5.333,671.334
			c0,68.005,55.325,123.333,123.333,123.333H548c54.404,0,98.667-44.263,98.667-98.667V252h24.667
			c68.002,0,123.333-55.329,123.333-123.333S739.336,5.333,671.334,5.333z M202.667,696c0,27.202-22.131,49.334-49.333,49.334
			h-24.667c-40.806,0-74-33.197-74-74c0-40.804,33.194-74,74-74h74V696z M597.334,696c0,27.202-22.132,49.334-49.334,49.334H238.751
			C247.17,730.814,252,713.958,252,696V153.333c0-54.266,44.395-98.667,98.667-98.667c40.8,0,74,33.197,74,74s-33.2,74-74,74
			c-13.622,0-24.667,11.044-24.667,24.667S337.044,252,350.667,252h246.667V696z M671.334,202.667H449.273
			c15.519-20.626,24.727-46.259,24.727-74c0-27.741-9.208-53.375-24.727-74h222.061c40.8,0,74,33.197,74,74
			S712.134,202.667,671.334,202.667z"/>
		<path fill="#030404" d="M325.982,338.333c0,6.813,5.522,12.333,12.333,12.333h172.696c6.812,0,12.334-5.521,12.334-12.333
			c0-6.811-5.522-12.333-12.334-12.333H338.315C331.504,326,325.982,331.522,325.982,338.333z"/>
		<path fill="#030404" d="M511.012,424.667H338.315c-6.812,0-12.333,5.522-12.333,12.333s5.522,12.333,12.333,12.333h172.696
			c6.812,0,12.334-5.522,12.334-12.333S517.823,424.667,511.012,424.667z"/>
		<path fill="#030404" d="M511.012,523.333H338.315c-6.812,0-12.333,5.522-12.333,12.334c0,6.811,5.522,12.333,12.333,12.333
			h172.696c6.812,0,12.334-5.522,12.334-12.333C523.346,528.855,517.823,523.333,511.012,523.333z"/>
		<path fill="#030404" d="M511.012,622h-0.006H338.333h-0.018c-6.812,0-12.333,5.52-12.333,12.334
			c0,6.811,5.522,12.333,12.333,12.333l0,0h172.696l0,0c6.812,0,12.334-5.522,12.334-12.333C523.346,627.52,517.823,622,511.012,622
			z"/>
	</g>
</g>
</svg>
