<?xml version="1.0" encoding="utf-8"?>
<!-- Generator: Adobe Illustrator 16.0.0, SVG Export Plug-In . SVG Version: 6.00 Build 0)  -->
<!DOCTYPE svg PUBLIC "-//W3C//DTD SVG 1.1//EN" "http://www.w3.org/Graphics/SVG/1.1/DTD/svg11.dtd">
<svg version="1.1" xmlns="http://www.w3.org/2000/svg" xmlns:xlink="http://www.w3.org/1999/xlink" x="0px" y="0px" width="800px"
	 height="800px" viewBox="0 0 800 800" enable-background="new 0 0 800 800" xml:space="preserve">
<g id="Layer_1">
	<g id="Layer_1_1_">
	</g>
</g>
<g id="Icons">
	<path fill="#FFFFFF" d="M279.965,746.414c-7.697,0-15.208-1.496-22.325-4.445c-21.884-9.065-36.026-30.229-36.026-53.916v-91.485
		c-58.684-12.812-112.076-45.05-151.109-91.426C29.068,455.91,6.247,393.393,6.247,329.108
		c0-150.934,122.793-273.728,273.728-273.728h239.304C670.209,55.38,793,178.174,793,329.108S670.209,602.835,519.278,602.835
		h-71.552L321.244,729.32C310.219,740.344,295.559,746.414,279.965,746.414z M279.975,124.241
		c-112.963,0-204.866,91.903-204.866,204.867c0,112.96,91.903,204.861,204.866,204.861h10.5v128.732l128.729-128.728l100.074-0.003
		c112.961-0.002,204.86-91.903,204.86-204.863c0-112.964-91.899-204.867-204.86-204.867H279.975z"/>
</g>
</svg>
