<?xml version="1.0" encoding="utf-8"?>
<!-- Generator: Adobe Illustrator 16.0.0, SVG Export Plug-In . SVG Version: 6.00 Build 0)  -->
<!DOCTYPE svg PUBLIC "-//W3C//DTD SVG 1.1//EN" "http://www.w3.org/Graphics/SVG/1.1/DTD/svg11.dtd">
<svg version="1.1" id="facebook-square" xmlns="http://www.w3.org/2000/svg" xmlns:xlink="http://www.w3.org/1999/xlink" x="0px"
	 y="0px" width="800px" height="800px" viewBox="0 0 800 800" enable-background="new 0 0 800 800" xml:space="preserve">
<path fill="#FFFFFF" d="M662.003,7h-523.99C65.958,7,7,65.958,7,138.021v523.966C7,734.09,65.958,793,138.005,793h523.99
	C734.066,793.008,793,734.09,793,661.987V138.03C793,65.974,734.066,7.008,662.003,7L662.003,7z M675.243,400H547.375v343.875H400
	V400h-71.021V287.498H400v-73.066c0-99.277,42.822-158.315,159.559-158.315h134.519v121.718H584.205
	c-32.612-0.057-36.654,17.003-36.654,48.748l-0.184,60.907H694.75l-19.497,112.502V400H675.243z"/>
</svg>
