<?xml version="1.0" encoding="utf-8"?>
<!-- Generator: Adobe Illustrator 16.0.0, SVG Export Plug-In . SVG Version: 6.00 Build 0)  -->
<!DOCTYPE svg PUBLIC "-//W3C//DTD SVG 1.1//EN" "http://www.w3.org/Graphics/SVG/1.1/DTD/svg11.dtd">
<svg version="1.1" id="googleplus-square" xmlns="http://www.w3.org/2000/svg" xmlns:xlink="http://www.w3.org/1999/xlink" x="0px"
	 y="0px" width="800px" height="800px" viewBox="0 0 800 800" enable-background="new 0 0 800 800" xml:space="preserve">
<path fill="#FFFFFF" d="M10.615,672.432c-0.19-1.926-0.342-3.86-0.446-5.811C10.273,668.57,10.425,670.506,10.615,672.432z
	 M189.694,440.485c70.083,2.085,117.099-70.608,105.009-162.388c-12.106-91.771-78.759-165.42-148.85-167.514
	c-70.09-2.085-117.106,68.148-105,159.953C52.951,362.292,119.58,438.393,189.694,440.485z M790.002,205.006v-64.98
	c0-71.507-58.487-130.018-129.993-130.018H140.011c-70.289,0-127.971,56.544-129.922,126.388
	C54.543,97.26,116.212,64.554,179.857,64.554c68.02,0,272.117,0,272.117,0l-60.898,51.506h-86.279
	c57.229,21.944,87.721,88.452,87.721,156.696c0,57.316-31.845,106.602-76.849,141.655c-43.905,34.2-52.229,48.52-52.229,77.597
	c0,24.81,47.032,67.033,71.627,84.384c71.89,50.688,95.154,97.734,95.154,176.304c0,12.512-1.553,25.009-4.617,37.29h234.413
	c71.509,0,129.993-58.465,129.993-130.02V253.75H643.763v146.247h-48.751V253.75H448.765v-48.751h146.247V58.759h48.751v146.239
	H790.01L790.002,205.006z M151.593,593.426c16.468,0,31.551-0.455,47.175-0.455c-20.679-20.056-37.043-44.635-37.043-74.928
	c0-17.979,5.763-35.293,13.818-50.67c-8.214,0.581-16.596,0.756-25.232,0.756c-56.639,0-104.738-18.34-140.317-48.641v51.22
	l0.008,153.656C50.707,605.039,99.036,593.426,151.593,593.426L151.593,593.426z M12.605,685.834
	c-0.851-4.155-1.496-8.382-1.935-12.662C11.109,677.452,11.762,681.679,12.605,685.834z M356.931,735.788
	c-11.479-44.795-52.143-67.002-108.846-106.313c-20.623-6.654-43.339-10.57-67.711-10.825
	c-68.268-0.732-131.855,26.616-167.736,67.312c12.13,59.188,64.773,104.015,127.382,104.015h218.191
	c1.378-8.479,2.054-17.239,2.054-26.228C360.257,754.214,359.087,744.878,356.931,735.788z"/>
</svg>
