<?xml version="1.0" encoding="utf-8"?>
<!-- Generator: Adobe Illustrator 16.0.0, SVG Export Plug-In . SVG Version: 6.00 Build 0)  -->
<!DOCTYPE svg PUBLIC "-//W3C//DTD SVG 1.1//EN" "http://www.w3.org/Graphics/SVG/1.1/DTD/svg11.dtd">
<svg version="1.1" id="Layer_1" xmlns="http://www.w3.org/2000/svg" xmlns:xlink="http://www.w3.org/1999/xlink" x="0px" y="0px"
	 width="512px" height="512px" viewBox="0 0 512 512" enable-background="new 0 0 512 512" xml:space="preserve">
<path fill="#FFFFFF" d="M470.615,133.751c17.334,0,31.385-14.052,31.385-31.384c0-17.336-14.049-31.386-31.385-31.384H41.383
	C24.052,70.983,10,85.035,10,102.367c0.002,8.666,3.515,16.513,9.193,22.192c5.679,5.681,13.526,9.191,22.191,9.193L470.615,133.751
	z M470.615,289.015c17.334,0,31.385-14.053,31.385-31.384c0-17.336-14.049-31.386-31.385-31.384H41.383
	C24.052,226.247,10,240.299,10,257.631c0.002,8.666,3.515,16.513,9.193,22.192c5.679,5.681,13.526,9.191,22.191,9.193
	L470.615,289.015z M470.615,441.015c17.334,0,31.385-14.053,31.385-31.384c0-17.337-14.049-31.386-31.385-31.384H41.383
	C24.052,378.247,10,392.299,10,409.631c0.002,8.666,3.515,16.513,9.193,22.192c5.679,5.681,13.526,9.191,22.191,9.193
	L470.615,441.015z"/>
</svg>
