<?xml version="1.0" encoding="utf-8"?>
<!-- Generator: Adobe Illustrator 16.0.0, SVG Export Plug-In . SVG Version: 6.00 Build 0)  -->
<!DOCTYPE svg PUBLIC "-//W3C//DTD SVG 1.1//EN" "http://www.w3.org/Graphics/SVG/1.1/DTD/svg11.dtd">
<svg version="1.1" id="twitter" xmlns="http://www.w3.org/2000/svg" xmlns:xlink="http://www.w3.org/1999/xlink" x="0px" y="0px"
	 width="800px" height="800px" viewBox="0 0 800 800" enable-background="new 0 0 800 800" xml:space="preserve">
<path fill="#FFFFFF" d="M793.004,154.796c-28.921,12.897-59.992,21.615-92.609,25.538c33.283-20.076,58.854-51.861,70.906-89.741
	c-31.16,18.591-65.664,32.082-102.401,39.365c-29.413-31.529-71.328-51.228-117.71-51.228c-89.061,0-161.27,72.618-161.27,162.197
	c0,12.712,1.419,25.088,4.17,36.966c-134.02-6.777-252.841-71.342-332.38-169.479c-13.875,23.965-21.832,51.827-21.832,81.551
	c0,56.279,28.473,105.934,71.743,135.015c-26.436-0.834-51.307-8.132-73.034-20.283c-0.016,0.681-0.016,1.363-0.016,2.045
	c0,78.591,55.59,144.142,129.362,159.053c-13.539,3.713-27.775,5.694-42.484,5.694c-10.395,0-20.493-1.021-30.342-2.912
	c20.525,64.436,80.076,111.341,150.64,112.646c-55.189,43.503-124.726,69.435-200.278,69.435c-13.017,0-25.85-0.771-38.466-2.263
	c71.366,46.021,156.134,72.884,247.189,72.884c296.61,0,458.816-247.166,458.816-461.521c0-7.035-0.161-14.02-0.475-20.99
	C744.039,215.888,771.381,187.311,793.004,154.796z"/>
</svg>
