<?xml version="1.0" encoding="utf-8"?>
<!-- Generator: Adobe Illustrator 16.0.0, SVG Export Plug-In . SVG Version: 6.00 Build 0)  -->
<!DOCTYPE svg PUBLIC "-//W3C//DTD SVG 1.1//EN" "http://www.w3.org/Graphics/SVG/1.1/DTD/svg11.dtd">
<svg version="1.1" id="Layer_1" xmlns="http://www.w3.org/2000/svg" xmlns:xlink="http://www.w3.org/1999/xlink" x="0px" y="0px"
	 width="400px" height="400px" viewBox="0 0 400 400" enable-background="new 0 0 400 400" xml:space="preserve">
<path fill="#FFFFFF" d="M381.949,61.167c-25.025-18.801-54.831-28.738-86.196-28.738c-22.646,0-45.214,5.415-65.263,15.657
	c-10.987,5.614-21.263,12.69-30.49,20.946c-9.228-8.256-19.504-15.333-30.492-20.946c-20.049-10.243-42.617-15.657-65.263-15.657
	c-31.362,0-61.167,9.937-86.193,28.735c-6.02,4.522-9.562,11.611-9.562,19.14v239.39c0,9.07,5.127,17.363,13.241,21.416
	c3.386,1.69,7.05,2.523,10.695,2.523c5.093,0,10.153-1.623,14.38-4.799c16.668-12.52,36.531-19.139,57.439-19.139
	c30.398,0,58.323,13.965,76.615,38.314c4.521,6.019,11.612,9.561,19.14,9.561c7.528,0,14.618-3.542,19.141-9.561
	c18.289-24.35,46.215-38.314,76.612-38.314c20.91,0,40.772,6.619,57.439,19.141c4.228,3.174,9.288,4.798,14.382,4.798
	c3.646,0,7.308-0.831,10.693-2.522c8.115-4.054,13.242-12.346,13.242-21.416V80.306C391.51,72.779,387.968,65.688,381.949,61.167z
	 M104.245,295.757c-26.947,0-51.811,8.911-71.816,23.938V80.305c20.005-15.027,44.869-23.937,71.816-23.937
	c35.755,0,67.838,15.686,89.77,40.542v239.391C172.083,311.444,140,295.757,104.245,295.757z M367.571,319.696
	c-20.006-15.028-44.871-23.939-71.818-23.939c-35.754,0-67.837,15.688-89.769,40.542V96.909
	c21.932-24.854,54.015-40.541,89.769-40.541c26.947,0,51.812,8.91,71.818,23.938V319.696z"/>
</svg>
